HIERARCHY
ROOT pelvis
{
	OFFSET 0.000000 0.000000 0.720141
	CHANNELS 6 Xposition Yposition Zposition Xrotation Yrotation Zrotation
	JOINT spine
	{
		OFFSET 0.000000 0.000000 0.000000
		CHANNELS 6 Xposition Yposition Zposition Xrotation Yrotation Zrotation
		JOINT spine.001
		{
			OFFSET 0.000000 -0.011068 0.211185
			CHANNELS 3 Xrotation Yrotation Zrotation
			JOINT neck
			{
				OFFSET 0.000000 0.025772 0.209898
				CHANNELS 6 Xposition Yposition Zposition Xrotation Yrotation Zrotation
				JOINT face
				{
					OFFSET 0.000000 0.002778 0.159171
					CHANNELS 6 Xposition Yposition Zposition Xrotation Yrotation Zrotation
					End Site
					{
						OFFSET 0.000000 -0.013781 -0.007013
					}
				}
			}
			JOINT shoulder.L
			{
				OFFSET 0.000000 0.025772 0.209898
				CHANNELS 6 Xposition Yposition Zposition Yrotation Xrotation Zrotation
				JOINT upper_arm.L
				{
					OFFSET 0.140142 0.000000 0.000000
					CHANNELS 6 Xposition Yposition Zposition Xrotation Yrotation Zrotation
					JOINT forearm.L
					{
						OFFSET 0.221691 0.000101 0.000841
						CHANNELS 6 Xposition Yposition Zposition Xrotation Yrotation Zrotation
						End Site
						{
							OFFSET 0.203615 -0.003461 -0.001158
						}
					}
				}
			}
			JOINT shoulder.R
			{
				OFFSET 0.000000 0.025772 0.209898
				CHANNELS 6 Xposition Yposition Zposition Yrotation Xrotation Zrotation
				JOINT upper_arm.R
				{
					OFFSET -0.140142 0.000000 0.000000
					CHANNELS 6 Xposition Yposition Zposition Xrotation Yrotation Zrotation
					JOINT forearm.R
					{
						OFFSET -0.218508 0.000101 0.000841
						CHANNELS 6 Xposition Yposition Zposition Xrotation Yrotation Zrotation
						End Site
						{
							OFFSET -0.190672 -0.003235 -0.001156
						}
					}
				}
			}
		}
	}
	JOINT pelvis.L
	{
		OFFSET 0.000000 0.000000 0.000000
		CHANNELS 6 Xposition Yposition Zposition Yrotation Xrotation Zrotation
		End Site
		{
			OFFSET 0.092302 0.000000 0.000000
		}
	}
	JOINT pelvis.R
	{
		OFFSET 0.000000 0.000000 0.000000
		CHANNELS 6 Xposition Yposition Zposition Yrotation Xrotation Zrotation
		End Site
		{
			OFFSET -0.092302 0.000000 0.000000
		}
	}
	JOINT thigh.L
	{
		OFFSET 0.092302 0.000000 0.000000
		CHANNELS 6 Xposition Yposition Zposition Xrotation Yrotation Zrotation
		JOINT shin.L
		{
			OFFSET 0.018633 0.000000 -0.355539
			CHANNELS 6 Xposition Yposition Zposition Xrotation Yrotation Zrotation
			JOINT foot.L
			{
				OFFSET 0.016000 0.000000 -0.305289
				CHANNELS 3 Xrotation Yrotation Zrotation
				End Site
				{
					OFFSET 0.012202 -0.124413 -0.052243
				}
			}
			JOINT heel.02.L
			{
				OFFSET 0.016000 0.000000 -0.305289
				CHANNELS 3 Xrotation Yrotation Zrotation
				End Site
				{
					OFFSET -0.067342 0.030236 -0.062015
				}
			}
		}
	}
	JOINT thigh.R
	{
		OFFSET -0.092302 0.000000 0.000000
		CHANNELS 6 Xposition Yposition Zposition Xrotation Yrotation Zrotation
		JOINT shin.R
		{
			OFFSET -0.018742 0.000000 -0.357619
			CHANNELS 6 Xposition Yposition Zposition Xrotation Yrotation Zrotation
			JOINT foot.R
			{
				OFFSET -0.016515 0.000000 -0.315127
				CHANNELS 3 Xrotation Yrotation Zrotation
				End Site
				{
					OFFSET -0.011971 -0.122060 -0.051255
				}
			}
			JOINT heel.02.R
			{
				OFFSET -0.016515 0.000000 -0.315127
				CHANNELS 3 Xrotation Yrotation Zrotation
				End Site
				{
					OFFSET 0.068350 0.030236 -0.050117
				}
			}
		}
	}
}
MOTION
Frames: 4
Frame Time: 0.041667
-0.044896 0.007034 0.704051 -0.000000 0.000000 -7.801282 0.000000 -0.000000 -0.000000 -7.606275 0.035432 0.004229 9.994861 -0.267505 -2.179156 0.000000 0.025772 0.209898 13.657780 -6.219320 3.068398 0.000000 0.002778 0.159170 2.016973 0.000001 -0.000000 -0.000000 0.025772 0.209898 -1.849074 0.003663 0.226989 0.140142 -0.000000 -0.000000 36.942321 76.368366 -46.000924 0.221691 0.000101 0.000841 0.516444 9.646949 -4.463955 0.000000 0.025772 0.209898 -1.795560 0.003454 0.220412 -0.140142 0.000000 0.000000 10.719923 -78.758549 13.075118 -0.218508 0.000101 0.000841 0.545057 -4.713194 13.160404 0.000000 0.000000 -0.000000 -0.838323 -0.000001 -0.000070 0.000000 0.000000 -0.000000 -0.838323 -0.000000 0.000000 0.092292 -0.000000 0.001350 5.452439 3.023631 0.142150 0.018633 -0.000000 -0.355539 -1.257098 -8.196816 -0.155379 -3.990688 -0.722123 0.702746 1.592159 -28.483924 -20.969963 -0.092292 0.000000 -0.001350 5.734938 -6.669227 0.033729 -0.018742 0.000000 -0.357619 -7.000621 2.374136 0.512026 -4.033308 -3.317020 8.088923 -3.342971 34.793940 31.848486 
-0.046050 0.005995 0.706515 -0.000000 0.000000 -7.218596 0.000000 0.000000 -0.000000 -7.773909 0.260737 0.031494 9.991567 -0.343317 -2.797240 -0.000000 0.025772 0.209898 13.948711 -6.536792 1.636849 -0.000000 0.002778 0.159171 0.665458 0.000000 0.000008 -0.000000 0.025772 0.209898 -1.843701 0.003641 0.226322 0.140142 -0.000000 -0.000000 29.589974 78.458684 -35.853425 0.221691 0.000101 0.000841 0.937776 9.179196 -10.422281 -0.000000 0.025772 0.209898 -1.790235 0.003433 0.219770 -0.140142 -0.000000 0.000000 10.680616 -79.296147 12.906032 -0.218508 0.000101 0.000841 0.427057 -3.862781 12.980949 0.000000 -0.000000 0.000000 -0.710479 -0.000000 0.000078 0.000000 -0.000000 0.000000 -0.710479 -0.000000 0.000000 0.092294 -0.000000 0.001145 5.441319 2.846589 0.150280 0.018633 -0.000000 -0.355539 -1.596585 -8.127934 -0.196391 -4.268169 -0.673289 0.532947 1.078811 -29.339812 -21.290598 -0.092294 -0.000000 -0.001144 5.950238 -6.834128 0.043627 -0.018742 0.000000 -0.357619 -7.410831 2.640193 0.559262 -3.364041 -3.494862 8.460841 -3.659753 35.186116 32.123432 
-0.047072 0.005794 0.707446 -0.000000 0.000000 -6.836864 -0.000000 -0.000000 -0.000000 -7.804854 0.365745 0.044275 9.989845 -0.376852 -3.070734 0.000000 0.025772 0.209898 14.091309 -6.617687 0.004459 0.000000 0.002778 0.159170 -0.402640 0.000002 0.000008 0.000000 0.025772 0.209898 -1.766720 0.003343 0.216799 0.140142 -0.000000 0.000000 20.601140 79.725520 -24.577099 0.221691 0.000101 0.000841 1.351090 9.346812 -15.525215 0.000000 0.025772 0.209898 -1.713156 0.003145 0.210266 -0.140142 -0.000000 -0.000000 7.245869 -79.850519 8.694336 -0.218508 0.000101 0.000841 0.395176 -3.360388 14.415343 -0.000000 -0.000000 -0.000000 -0.603359 -0.000000 0.000062 -0.000000 -0.000000 -0.000000 -0.603359 -0.000000 0.000000 0.092296 -0.000000 0.000972 5.366561 2.707523 0.154733 0.018633 0.000000 -0.355539 -1.784457 -8.093206 -0.218965 -4.500329 -0.664393 0.460733 0.682321 -29.970406 -21.524166 -0.092296 0.000000 -0.000972 6.019812 -6.971227 0.051398 -0.018742 0.000000 -0.357619 -7.603345 2.832506 0.586551 -3.004869 -3.649686 8.798247 -3.815501 35.340208 32.188619 
-0.048061 0.006395 0.707165 -0.000000 0.000000 -6.905019 0.000000 0.000000 -0.000000 -7.739644 0.336707 0.040566 9.990263 -0.371265 -3.025142 -0.000000 0.025772 0.209898 14.242502 -6.370108 -1.595318 -0.000000 0.002778 0.159171 -1.156796 0.000000 -0.000002 0.000000 0.025772 0.209898 -1.598265 0.002738 0.196268 0.140142 0.000000 0.000000 17.207545 80.002743 -20.467543 0.221691 0.000101 0.000841 1.528981 9.435118 -17.606341 0.000000 0.025772 0.209898 -1.544751 0.002557 0.189674 -0.140142 0.000000 0.000000 1.229527 -80.086072 1.513988 -0.218508 0.000101 0.000841 0.473261 -3.441885 17.115933 0.000000 0.000000 -0.000000 -0.533094 -0.000000 -0.000021 0.000000 0.000000 -0.000000 -0.533057 -0.000000 -0.000000 0.092298 0.000000 0.000859 5.252143 2.626015 0.155167 0.018633 -0.000000 -0.355539 -1.790403 -8.101553 -0.219825 -4.550301 -0.781203 0.698789 0.468709 -30.282894 -21.627984 -0.092298 0.000000 -0.000859 5.935800 -7.059587 0.055294 -0.018742 0.000000 -0.357619 -7.614938 2.904045 0.592186 -2.973600 -3.819198 9.177458 -3.868504 35.310442 32.053186 
